<svg width="64" height="64" viewBox="0 0 64 64" fill="none" xmlns="http://www.w3.org/2000/svg">
<g opacity="0.6" filter="url(#filter0_ii_486_1064)">
<rect width="64" height="64" rx="32" fill="#201E1F" fill-opacity="0.31"/>
<g clip-path="url(#clip0_486_1064)">
<path d="M32 48C40.8366 48 48 40.8366 48 32C48 23.1634 40.8366 16 32 16C23.1634 16 16 23.1634 16 32C16 40.8366 23.1634 48 32 48Z" fill="#F4B731"/>
<path fill-rule="evenodd" clip-rule="evenodd" d="M25.277 24H31.829C35.814 24 38.835 26.116 39.959 29.194H42V31.055H40.389C40.4203 31.349 40.436 31.6483 40.436 31.953V31.999C40.436 32.3417 40.416 32.6783 40.376 33.009H42V34.869H39.92C38.767 37.905 35.77 40 31.83 40H25.277V34.869H23V33.009H25.277V31.055H23V29.195H25.277V24ZM27.108 34.869V38.331H31.828C34.742 38.331 36.906 36.944 37.913 34.869H27.108ZM38.474 33.009H27.108V31.055H38.478C38.5193 31.3617 38.5403 31.6763 38.541 31.999V32.044C38.541 32.3727 38.5187 32.694 38.474 33.008V33.009ZM31.83 25.665C34.756 25.665 36.927 27.089 37.928 29.193H27.108V25.666H31.828L31.83 25.665Z" fill="white"/>
</g>
</g>
<defs>
<filter id="filter0_ii_486_1064" x="0" y="-4" width="65" height="71" filterUnits="userSpaceOnUse" color-interpolation-filters="sRGB">
<feFlood flood-opacity="0" result="BackgroundImageFix"/>
<feBlend mode="normal" in="SourceGraphic" in2="BackgroundImageFix" result="shape"/>
<feColorMatrix in="SourceAlpha" type="matrix" values="0 0 0 0 0 0 0 0 0 0 0 0 0 0 0 0 0 0 127 0" result="hardAlpha"/>
<feMorphology radius="5" operator="dilate" in="SourceAlpha" result="effect1_innerShadow_486_1064"/>
<feOffset dx="1" dy="11"/>
<feGaussianBlur stdDeviation="4"/>
<feComposite in2="hardAlpha" operator="arithmetic" k2="-1" k3="1"/>
<feColorMatrix type="matrix" values="0 0 0 0 1 0 0 0 0 0.778433 0 0 0 0 0.881831 0 0 0 0.08 0"/>
<feBlend mode="normal" in2="shape" result="effect1_innerShadow_486_1064"/>
<feColorMatrix in="SourceAlpha" type="matrix" values="0 0 0 0 0 0 0 0 0 0 0 0 0 0 0 0 0 0 127 0" result="hardAlpha"/>
<feMorphology radius="1" operator="erode" in="SourceAlpha" result="effect2_innerShadow_486_1064"/>
<feOffset dx="1" dy="-4"/>
<feGaussianBlur stdDeviation="4"/>
<feComposite in2="hardAlpha" operator="arithmetic" k2="-1" k3="1"/>
<feColorMatrix type="matrix" values="0 0 0 0 1 0 0 0 0 0.780392 0 0 0 0 0.882353 0 0 0 0.14 0"/>
<feBlend mode="normal" in2="effect1_innerShadow_486_1064" result="effect2_innerShadow_486_1064"/>
</filter>
<clipPath id="clip0_486_1064">
<rect width="32" height="32" fill="white" transform="translate(16 16)"/>
</clipPath>
</defs>
</svg>
