<svg width="154" height="40" viewBox="0 0 154 40" fill="none" xmlns="http://www.w3.org/2000/svg">
<g opacity="0.6" filter="url(#filter0_ii_768_1124)">
<rect width="40" height="40" rx="20" fill="#201E1F" fill-opacity="0.31"/>
<path d="M24.1245 31.2498C20.1945 31.2498 16.9995 28.0548 16.9995 24.1248C16.9995 20.1948 20.1945 16.9998 24.1245 16.9998C28.0545 16.9998 31.2495 20.1948 31.2495 24.1248C31.2495 25.4298 30.897 26.6973 30.2295 27.8073C30.3045 28.1973 30.717 29.2323 31.1745 30.1698C31.317 30.4548 31.257 30.7998 31.032 31.0248C30.807 31.2498 30.462 31.3098 30.177 31.1748C29.2245 30.7173 28.167 30.3123 27.777 30.2448C26.673 30.9043 25.4106 31.2516 24.1245 31.2498ZM24.1245 18.4998C21.0195 18.4998 18.4995 21.0198 18.4995 24.1248C18.4995 27.2298 21.0195 29.7498 24.1245 29.7498C25.1895 29.7498 26.2245 29.4498 27.1245 28.8873C27.3195 28.7598 27.6495 28.5573 29.052 29.0598C28.5345 27.6798 28.737 27.3648 28.872 27.1548C29.4148 26.3045 29.719 25.3239 29.7528 24.3157C29.7867 23.3075 29.5489 22.3088 29.0643 21.424C28.5798 20.5393 27.8663 19.801 26.9986 19.2866C26.1308 18.7721 25.1408 18.5004 24.132 18.4998H24.1245ZM25.722 23.7498C25.722 24.1623 26.0595 24.4998 26.472 24.4998C26.8845 24.4998 27.222 24.1623 27.222 23.7498C27.222 23.3373 26.8845 22.9998 26.472 22.9998C26.0595 22.9998 25.722 23.3373 25.722 23.7498ZM21.972 23.7498C21.972 24.1623 22.3095 24.4998 22.722 24.4998C23.1345 24.4998 23.472 24.1623 23.472 23.7498C23.472 23.3373 23.1345 22.9998 22.722 22.9998C22.3095 22.9998 21.972 23.3373 21.972 23.7498ZM26.4345 25.2498C25.962 25.7148 25.3095 25.9998 24.597 25.9998C23.8845 25.9998 23.232 25.7148 22.7595 25.2498L21.7095 26.3223C22.481 27.0774 23.5175 27.5002 24.597 27.5002C25.6765 27.5002 26.7131 27.0774 27.4845 26.3223L26.4345 25.2498ZM15.4995 28.9998H11.4645L19.9995 11.9223L21.957 15.8298L23.2995 15.1623L20.6745 9.91229C20.4195 9.40229 19.587 9.40229 19.332 9.91229L9.57453 29.4123C9.45453 29.6448 9.46953 29.9223 9.60453 30.1398C9.73953 30.3573 9.97953 30.4923 10.242 30.4923H15.492V28.9923L15.4995 28.9998Z" fill="#FFF3EF"/>
</g>
<g opacity="0.6" filter="url(#filter1_ii_768_1124)">
<rect x="114" width="40" height="40" rx="20" fill="#201E1F" fill-opacity="0.31"/>
<path d="M125 8H143V32H125V8ZM141.5 30.5V9.5H126.5V30.5H141.5ZM140 14V15.5H134V14H140ZM140 20V21.5H134V20H140ZM140 26V27.5H134V26H140ZM133.027 13.0273L130.25 15.8047L128.223 13.7773L129.277 12.7227L130.25 13.6953L131.973 11.9727L133.027 13.0273ZM133.027 19.0273L130.25 21.8047L128.223 19.7773L129.277 18.7227L130.25 19.6953L131.973 17.9727L133.027 19.0273ZM133.027 25.0273L130.25 27.8047L128.223 25.7773L129.277 24.7227L130.25 25.6953L131.973 23.9727L133.027 25.0273Z" fill="#FFF3EF"/>
</g>
<path d="M43 20.5C42.7239 20.5 42.5 20.7239 42.5 21C42.5 21.2761 42.7239 21.5 43 21.5V21V20.5ZM111.354 21.3536C111.549 21.1583 111.549 20.8417 111.354 20.6464L108.172 17.4645C107.976 17.2692 107.66 17.2692 107.464 17.4645C107.269 17.6597 107.269 17.9763 107.464 18.1716L110.293 21L107.464 23.8284C107.269 24.0237 107.269 24.3403 107.464 24.5355C107.66 24.7308 107.976 24.7308 108.172 24.5355L111.354 21.3536ZM43 21V21.5H44.8889V21V20.5H43V21ZM48.6667 21V21.5H52.4444V21V20.5H48.6667V21ZM56.2222 21V21.5H60V21V20.5H56.2222V21ZM63.7778 21V21.5H67.5556V21V20.5H63.7778V21ZM71.3333 21V21.5H75.1111V21V20.5H71.3333V21ZM78.8889 21V21.5H82.6667V21V20.5H78.8889V21ZM86.4445 21V21.5H90.2222V21V20.5H86.4445V21ZM94 21V21.5H97.7778V21V20.5H94V21ZM101.556 21V21.5H105.333V21V20.5H101.556V21ZM109.111 21V21.5H111V21V20.5H109.111V21ZM43 20.5C42.7239 20.5 42.5 20.7239 42.5 21C42.5 21.2761 42.7239 21.5 43 21.5V21V20.5ZM111.354 21.3536C111.549 21.1583 111.549 20.8417 111.354 20.6464L108.172 17.4645C107.976 17.2692 107.66 17.2692 107.464 17.4645C107.269 17.6597 107.269 17.9763 107.464 18.1716L110.293 21L107.464 23.8284C107.269 24.0237 107.269 24.3403 107.464 24.5355C107.66 24.7308 107.976 24.7308 108.172 24.5355L111.354 21.3536ZM43 21V21.5H44.8889V21V20.5H43V21ZM48.6667 21V21.5H52.4444V21V20.5H48.6667V21ZM56.2222 21V21.5H60V21V20.5H56.2222V21ZM63.7778 21V21.5H67.5556V21V20.5H63.7778V21ZM71.3333 21V21.5H75.1111V21V20.5H71.3333V21ZM78.8889 21V21.5H82.6667V21V20.5H78.8889V21ZM86.4445 21V21.5H90.2222V21V20.5H86.4445V21ZM94 21V21.5H97.7778V21V20.5H94V21ZM101.556 21V21.5H105.333V21V20.5H101.556V21ZM109.111 21V21.5H111V21V20.5H109.111V21Z" fill="#FFF3EF"/>
<defs>
<filter id="filter0_ii_768_1124" x="0" y="-4" width="41" height="47" filterUnits="userSpaceOnUse" color-interpolation-filters="sRGB">
<feFlood flood-opacity="0" result="BackgroundImageFix"/>
<feBlend mode="normal" in="SourceGraphic" in2="BackgroundImageFix" result="shape"/>
<feColorMatrix in="SourceAlpha" type="matrix" values="0 0 0 0 0 0 0 0 0 0 0 0 0 0 0 0 0 0 127 0" result="hardAlpha"/>
<feMorphology radius="5" operator="dilate" in="SourceAlpha" result="effect1_innerShadow_768_1124"/>
<feOffset dx="1" dy="11"/>
<feGaussianBlur stdDeviation="4"/>
<feComposite in2="hardAlpha" operator="arithmetic" k2="-1" k3="1"/>
<feColorMatrix type="matrix" values="0 0 0 0 1 0 0 0 0 0.778433 0 0 0 0 0.881831 0 0 0 0.08 0"/>
<feBlend mode="normal" in2="shape" result="effect1_innerShadow_768_1124"/>
<feColorMatrix in="SourceAlpha" type="matrix" values="0 0 0 0 0 0 0 0 0 0 0 0 0 0 0 0 0 0 127 0" result="hardAlpha"/>
<feMorphology radius="1" operator="erode" in="SourceAlpha" result="effect2_innerShadow_768_1124"/>
<feOffset dx="1" dy="-4"/>
<feGaussianBlur stdDeviation="4"/>
<feComposite in2="hardAlpha" operator="arithmetic" k2="-1" k3="1"/>
<feColorMatrix type="matrix" values="0 0 0 0 1 0 0 0 0 0.780392 0 0 0 0 0.882353 0 0 0 0.14 0"/>
<feBlend mode="normal" in2="effect1_innerShadow_768_1124" result="effect2_innerShadow_768_1124"/>
</filter>
<filter id="filter1_ii_768_1124" x="114" y="-4" width="41" height="47" filterUnits="userSpaceOnUse" color-interpolation-filters="sRGB">
<feFlood flood-opacity="0" result="BackgroundImageFix"/>
<feBlend mode="normal" in="SourceGraphic" in2="BackgroundImageFix" result="shape"/>
<feColorMatrix in="SourceAlpha" type="matrix" values="0 0 0 0 0 0 0 0 0 0 0 0 0 0 0 0 0 0 127 0" result="hardAlpha"/>
<feMorphology radius="5" operator="dilate" in="SourceAlpha" result="effect1_innerShadow_768_1124"/>
<feOffset dx="1" dy="11"/>
<feGaussianBlur stdDeviation="4"/>
<feComposite in2="hardAlpha" operator="arithmetic" k2="-1" k3="1"/>
<feColorMatrix type="matrix" values="0 0 0 0 1 0 0 0 0 0.778433 0 0 0 0 0.881831 0 0 0 0.08 0"/>
<feBlend mode="normal" in2="shape" result="effect1_innerShadow_768_1124"/>
<feColorMatrix in="SourceAlpha" type="matrix" values="0 0 0 0 0 0 0 0 0 0 0 0 0 0 0 0 0 0 127 0" result="hardAlpha"/>
<feMorphology radius="1" operator="erode" in="SourceAlpha" result="effect2_innerShadow_768_1124"/>
<feOffset dx="1" dy="-4"/>
<feGaussianBlur stdDeviation="4"/>
<feComposite in2="hardAlpha" operator="arithmetic" k2="-1" k3="1"/>
<feColorMatrix type="matrix" values="0 0 0 0 1 0 0 0 0 0.780392 0 0 0 0 0.882353 0 0 0 0.14 0"/>
<feBlend mode="normal" in2="effect1_innerShadow_768_1124" result="effect2_innerShadow_768_1124"/>
</filter>
</defs>
</svg>
