<svg width="154" height="40" viewBox="0 0 154 40" fill="none" xmlns="http://www.w3.org/2000/svg">
<g opacity="0.6" filter="url(#filter0_ii_768_1122)">
<rect width="40" height="40" rx="20" fill="#201E1F" fill-opacity="0.31"/>
<g clip-path="url(#clip0_768_1122)">
<path d="M20 16L17 17.75V21.25L20 23L23 21.25V17.75L20 16ZM21.517 18.04L19.987 18.932L18.47 18.047L20 17.155L21.517 18.04ZM17.99 18.922L19.474 19.788V21.538L17.99 20.673V18.922ZM20.464 21.575V19.808L22.01 18.906V20.673L20.464 21.575ZM11 8L8 9.75V13.25L11 15L14 13.25V9.75L11 8ZM12.517 10.04L10.987 10.932L9.47 10.047L11 9.155L12.517 10.04ZM8.99 10.921L10.474 11.787V13.537L8.99 12.674V10.921ZM11.464 13.574V11.808L13.01 10.906V12.673L11.464 13.574ZM11 25L8 26.75V30.25L11 32L14 30.25V26.75L11 25ZM12.517 27.04L10.987 27.932L9.47 27.047L11 26.155L12.517 27.04ZM8.99 27.922L10.474 28.788V30.538L8.99 29.674V27.922ZM11.464 30.575V28.808L13.01 27.906V29.673L11.464 30.575ZM29 8L26 9.75V13.25L29 15L32 13.25V9.75L29 8ZM30.517 10.04L28.987 10.932L27.47 10.047L29 9.155L30.517 10.04ZM26.99 10.922L28.474 11.788V13.538L26.99 12.673V10.922ZM29.464 13.575V11.808L31.01 10.906V12.673L29.464 13.575ZM29 25L26 26.75V30.25L29 32L32 30.25V26.75L29 25ZM30.517 27.04L28.987 27.932L27.47 27.047L29 26.155L30.517 27.04ZM26.99 27.922L28.474 28.788V30.538L26.99 29.673V27.922ZM29.464 30.575V28.808L31.01 27.906V29.673L29.464 30.575ZM17 11H23V12H17V11ZM17 28H23V29H17V28ZM11.5 17V23H10.5V17H11.5ZM15.293 16.828L13.172 14.707L13.879 14L16 16.12L15.293 16.828ZM24 16.293L26.121 14.172L26.828 14.879L24.707 17L24 16.293ZM16.128 22.879L14.007 25L13.3 24.293L15.421 22.172L16.128 22.879ZM24.879 22.129L27 24.25L26.293 24.957L24.172 22.836L24.879 22.129ZM29.5 17V23H28.5V17H29.5Z" fill="#FFF3EF"/>
</g>
</g>
<g opacity="0.6" filter="url(#filter1_ii_768_1122)">
<rect x="114" width="40" height="40" rx="20" fill="#201E1F" fill-opacity="0.31"/>
<g clip-path="url(#clip1_768_1122)">
<path d="M134 16L131 17.75V21.25L134 23L137 21.25V17.75L134 16ZM135.517 18.04L133.987 18.932L132.47 18.047L134 17.155L135.517 18.04ZM131.99 18.922L133.474 19.788V21.538L131.99 20.673V18.922ZM134.464 21.575V19.808L136.01 18.906V20.673L134.464 21.575ZM125 8L122 9.75V13.25L125 15L128 13.25V9.75L125 8ZM126.517 10.04L124.987 10.932L123.47 10.047L125 9.155L126.517 10.04ZM122.99 10.921L124.474 11.787V13.537L122.99 12.674V10.921ZM125.464 13.574V11.808L127.01 10.906V12.673L125.464 13.574ZM125 25L122 26.75V30.25L125 32L128 30.25V26.75L125 25ZM126.517 27.04L124.987 27.932L123.47 27.047L125 26.155L126.517 27.04ZM122.99 27.922L124.474 28.788V30.538L122.99 29.674V27.922ZM125.464 30.575V28.808L127.01 27.906V29.673L125.464 30.575ZM143 8L140 9.75V13.25L143 15L146 13.25V9.75L143 8ZM144.517 10.04L142.987 10.932L141.47 10.047L143 9.155L144.517 10.04ZM140.99 10.922L142.474 11.788V13.538L140.99 12.673V10.922ZM143.464 13.575V11.808L145.01 10.906V12.673L143.464 13.575ZM143 25L140 26.75V30.25L143 32L146 30.25V26.75L143 25ZM144.517 27.04L142.987 27.932L141.47 27.047L143 26.155L144.517 27.04ZM140.99 27.922L142.474 28.788V30.538L140.99 29.673V27.922ZM143.464 30.575V28.808L145.01 27.906V29.673L143.464 30.575ZM131 11H137V12H131V11ZM131 28H137V29H131V28ZM125.5 17V23H124.5V17H125.5ZM129.293 16.828L127.172 14.707L127.879 14L130 16.12L129.293 16.828ZM138 16.293L140.121 14.172L140.828 14.879L138.707 17L138 16.293ZM130.128 22.879L128.007 25L127.3 24.293L129.421 22.172L130.128 22.879ZM138.879 22.129L141 24.25L140.293 24.957L138.172 22.836L138.879 22.129ZM143.5 17V23H142.5V17H143.5Z" fill="#FFF3EF"/>
</g>
</g>
<path d="M43 20.5C42.7239 20.5 42.5 20.7239 42.5 21C42.5 21.2761 42.7239 21.5 43 21.5V21V20.5ZM111.354 21.3536C111.549 21.1583 111.549 20.8417 111.354 20.6464L108.172 17.4645C107.976 17.2692 107.66 17.2692 107.464 17.4645C107.269 17.6597 107.269 17.9763 107.464 18.1716L110.293 21L107.464 23.8284C107.269 24.0237 107.269 24.3403 107.464 24.5355C107.66 24.7308 107.976 24.7308 108.172 24.5355L111.354 21.3536ZM43 21V21.5H44.8889V21V20.5H43V21ZM48.6667 21V21.5H52.4444V21V20.5H48.6667V21ZM56.2222 21V21.5H60V21V20.5H56.2222V21ZM63.7778 21V21.5H67.5556V21V20.5H63.7778V21ZM71.3333 21V21.5H75.1111V21V20.5H71.3333V21ZM78.8889 21V21.5H82.6667V21V20.5H78.8889V21ZM86.4445 21V21.5H90.2222V21V20.5H86.4445V21ZM94 21V21.5H97.7778V21V20.5H94V21ZM101.556 21V21.5H105.333V21V20.5H101.556V21ZM109.111 21V21.5H111V21V20.5H109.111V21ZM43 20.5C42.7239 20.5 42.5 20.7239 42.5 21C42.5 21.2761 42.7239 21.5 43 21.5V21V20.5ZM111.354 21.3536C111.549 21.1583 111.549 20.8417 111.354 20.6464L108.172 17.4645C107.976 17.2692 107.66 17.2692 107.464 17.4645C107.269 17.6597 107.269 17.9763 107.464 18.1716L110.293 21L107.464 23.8284C107.269 24.0237 107.269 24.3403 107.464 24.5355C107.66 24.7308 107.976 24.7308 108.172 24.5355L111.354 21.3536ZM43 21V21.5H44.8889V21V20.5H43V21ZM48.6667 21V21.5H52.4444V21V20.5H48.6667V21ZM56.2222 21V21.5H60V21V20.5H56.2222V21ZM63.7778 21V21.5H67.5556V21V20.5H63.7778V21ZM71.3333 21V21.5H75.1111V21V20.5H71.3333V21ZM78.8889 21V21.5H82.6667V21V20.5H78.8889V21ZM86.4445 21V21.5H90.2222V21V20.5H86.4445V21ZM94 21V21.5H97.7778V21V20.5H94V21ZM101.556 21V21.5H105.333V21V20.5H101.556V21ZM109.111 21V21.5H111V21V20.5H109.111V21Z" fill="#FFF3EF"/>
<defs>
<filter id="filter0_ii_768_1122" x="0" y="-4" width="41" height="47" filterUnits="userSpaceOnUse" color-interpolation-filters="sRGB">
<feFlood flood-opacity="0" result="BackgroundImageFix"/>
<feBlend mode="normal" in="SourceGraphic" in2="BackgroundImageFix" result="shape"/>
<feColorMatrix in="SourceAlpha" type="matrix" values="0 0 0 0 0 0 0 0 0 0 0 0 0 0 0 0 0 0 127 0" result="hardAlpha"/>
<feMorphology radius="5" operator="dilate" in="SourceAlpha" result="effect1_innerShadow_768_1122"/>
<feOffset dx="1" dy="11"/>
<feGaussianBlur stdDeviation="4"/>
<feComposite in2="hardAlpha" operator="arithmetic" k2="-1" k3="1"/>
<feColorMatrix type="matrix" values="0 0 0 0 1 0 0 0 0 0.778433 0 0 0 0 0.881831 0 0 0 0.08 0"/>
<feBlend mode="normal" in2="shape" result="effect1_innerShadow_768_1122"/>
<feColorMatrix in="SourceAlpha" type="matrix" values="0 0 0 0 0 0 0 0 0 0 0 0 0 0 0 0 0 0 127 0" result="hardAlpha"/>
<feMorphology radius="1" operator="erode" in="SourceAlpha" result="effect2_innerShadow_768_1122"/>
<feOffset dx="1" dy="-4"/>
<feGaussianBlur stdDeviation="4"/>
<feComposite in2="hardAlpha" operator="arithmetic" k2="-1" k3="1"/>
<feColorMatrix type="matrix" values="0 0 0 0 1 0 0 0 0 0.780392 0 0 0 0 0.882353 0 0 0 0.14 0"/>
<feBlend mode="normal" in2="effect1_innerShadow_768_1122" result="effect2_innerShadow_768_1122"/>
</filter>
<filter id="filter1_ii_768_1122" x="114" y="-4" width="41" height="47" filterUnits="userSpaceOnUse" color-interpolation-filters="sRGB">
<feFlood flood-opacity="0" result="BackgroundImageFix"/>
<feBlend mode="normal" in="SourceGraphic" in2="BackgroundImageFix" result="shape"/>
<feColorMatrix in="SourceAlpha" type="matrix" values="0 0 0 0 0 0 0 0 0 0 0 0 0 0 0 0 0 0 127 0" result="hardAlpha"/>
<feMorphology radius="5" operator="dilate" in="SourceAlpha" result="effect1_innerShadow_768_1122"/>
<feOffset dx="1" dy="11"/>
<feGaussianBlur stdDeviation="4"/>
<feComposite in2="hardAlpha" operator="arithmetic" k2="-1" k3="1"/>
<feColorMatrix type="matrix" values="0 0 0 0 1 0 0 0 0 0.778433 0 0 0 0 0.881831 0 0 0 0.08 0"/>
<feBlend mode="normal" in2="shape" result="effect1_innerShadow_768_1122"/>
<feColorMatrix in="SourceAlpha" type="matrix" values="0 0 0 0 0 0 0 0 0 0 0 0 0 0 0 0 0 0 127 0" result="hardAlpha"/>
<feMorphology radius="1" operator="erode" in="SourceAlpha" result="effect2_innerShadow_768_1122"/>
<feOffset dx="1" dy="-4"/>
<feGaussianBlur stdDeviation="4"/>
<feComposite in2="hardAlpha" operator="arithmetic" k2="-1" k3="1"/>
<feColorMatrix type="matrix" values="0 0 0 0 1 0 0 0 0 0.780392 0 0 0 0 0.882353 0 0 0 0.14 0"/>
<feBlend mode="normal" in2="effect1_innerShadow_768_1122" result="effect2_innerShadow_768_1122"/>
</filter>
<clipPath id="clip0_768_1122">
<rect width="24" height="24" fill="white" transform="translate(8 8)"/>
</clipPath>
<clipPath id="clip1_768_1122">
<rect width="24" height="24" fill="white" transform="translate(122 8)"/>
</clipPath>
</defs>
</svg>
