<svg width="154" height="40" viewBox="0 0 154 40" fill="none" xmlns="http://www.w3.org/2000/svg">
<g opacity="0.6" filter="url(#filter0_ii_768_1121)">
<rect width="40" height="40" rx="20" fill="#201E1F" fill-opacity="0.31"/>
<path d="M11 13V12.25C10.8011 12.25 10.6103 12.329 10.4697 12.4697C10.329 12.6103 10.25 12.8011 10.25 13H11ZM29 13H29.75C29.75 12.8011 29.671 12.6103 29.5303 12.4697C29.3897 12.329 29.1989 12.25 29 12.25V13ZM11 13.75H29V12.25H11V13.75ZM28.25 13V25H29.75V13H28.25ZM27 26.25H13V27.75H27V26.25ZM11.75 25V13H10.25V25H11.75ZM13 26.25C12.31 26.25 11.75 25.69 11.75 25H10.25C10.25 25.7293 10.5397 26.4288 11.0555 26.9445C11.5712 27.4603 12.2707 27.75 13 27.75V26.25ZM28.25 25C28.25 25.69 27.69 26.25 27 26.25V27.75C27.7293 27.75 28.4288 27.4603 28.9445 26.9445C29.4603 26.4288 29.75 25.7293 29.75 25H28.25Z" fill="#FFF3EF"/>
<path d="M11 13L20 22L29 13" stroke="#FFF3EF" stroke-width="1.5" stroke-linecap="round" stroke-linejoin="round"/>
</g>
<g opacity="0.6" filter="url(#filter1_ii_768_1121)">
<rect x="114" width="40" height="40" rx="20" fill="#201E1F" fill-opacity="0.31"/>
<path d="M131.915 16.2598L130.53 17.6748H125.145C124.907 17.6761 124.68 17.7715 124.512 17.9401C124.344 18.1088 124.25 18.3369 124.25 18.5748V28.6848C124.25 28.9221 124.344 29.1498 124.512 29.3176C124.68 29.4855 124.908 29.5798 125.145 29.5798H142.855C143.092 29.5798 143.32 29.4855 143.488 29.3176C143.656 29.1498 143.75 28.9221 143.75 28.6848V18.5698C143.75 18.3324 143.656 18.1047 143.488 17.9369C143.32 17.7691 143.092 17.6748 142.855 17.6748H137.47L136.085 16.2598H131.915Z" stroke="#FFF3EF" stroke-width="1.5" stroke-linecap="round" stroke-linejoin="round"/>
<path d="M141.38 19.125C141.5 19.125 141.62 19.1488 141.732 19.195C141.843 19.2413 141.945 19.309 142.03 19.3945C142.116 19.4799 142.183 19.5813 142.23 19.6929C142.276 19.8046 142.3 19.9242 142.3 20.045C142.3 20.1658 142.276 20.2854 142.23 20.3971C142.183 20.5087 142.116 20.6101 142.03 20.6955C141.945 20.781 141.843 20.8487 141.732 20.895C141.62 20.9412 141.5 20.965 141.38 20.965C141.136 20.965 140.902 20.8681 140.729 20.6955C140.556 20.523 140.46 20.289 140.46 20.045C140.46 19.801 140.556 19.567 140.729 19.3945C140.902 19.2219 141.136 19.125 141.38 19.125ZM134 19.855C134.754 19.855 135.492 20.0787 136.119 20.4979C136.746 20.9171 137.235 21.513 137.524 22.2101C137.813 22.9072 137.888 23.6742 137.741 24.4143C137.594 25.1543 137.231 25.8341 136.697 26.3676C136.164 26.9012 135.484 27.2645 134.744 27.4117C134.004 27.5589 133.237 27.4833 132.54 27.1946C131.843 26.9059 131.247 26.4169 130.828 25.7895C130.408 25.1621 130.185 24.4245 130.185 23.67C130.185 22.6582 130.587 21.6878 131.302 20.9724C132.017 20.2569 132.988 19.855 134 19.855Z" stroke="#FFF3EF" stroke-width="1.5" stroke-linecap="round" stroke-linejoin="round"/>
<path d="M139.465 17.6749V15.8849C139.465 15.1672 139.324 14.4566 139.049 13.7936C138.775 13.1305 138.372 12.5281 137.864 12.0206C137.357 11.5131 136.755 11.1106 136.092 10.8359C135.428 10.5613 134.718 10.4199 134 10.4199C132.551 10.4199 131.161 10.9957 130.136 12.0206C129.111 13.0455 128.535 14.4355 128.535 15.8849V17.6749M134 21.4199C134.274 21.4185 134.541 21.5033 134.764 21.6623C134.988 21.8213 135.155 22.0465 135.243 22.3059C135.331 22.5653 135.335 22.8458 135.254 23.1077C135.174 23.3695 135.013 23.5995 134.795 23.7649L135.415 25.9199H132.585L133.205 23.7649C132.987 23.5995 132.826 23.3695 132.746 23.1077C132.665 22.8458 132.67 22.5653 132.758 22.3059C132.845 22.0465 133.013 21.8213 133.236 21.6623C133.459 21.5033 133.726 21.4185 134 21.4199Z" stroke="#FFF3EF" stroke-width="1.5" stroke-linecap="round" stroke-linejoin="round"/>
</g>
<path d="M43 20.5C42.7239 20.5 42.5 20.7239 42.5 21C42.5 21.2761 42.7239 21.5 43 21.5V21V20.5ZM111.354 21.3536C111.549 21.1583 111.549 20.8417 111.354 20.6464L108.172 17.4645C107.976 17.2692 107.66 17.2692 107.464 17.4645C107.269 17.6597 107.269 17.9763 107.464 18.1716L110.293 21L107.464 23.8284C107.269 24.0237 107.269 24.3403 107.464 24.5355C107.66 24.7308 107.976 24.7308 108.172 24.5355L111.354 21.3536ZM43 21V21.5H44.8889V21V20.5H43V21ZM48.6667 21V21.5H52.4444V21V20.5H48.6667V21ZM56.2222 21V21.5H60V21V20.5H56.2222V21ZM63.7778 21V21.5H67.5556V21V20.5H63.7778V21ZM71.3333 21V21.5H75.1111V21V20.5H71.3333V21ZM78.8889 21V21.5H82.6667V21V20.5H78.8889V21ZM86.4445 21V21.5H90.2222V21V20.5H86.4445V21ZM94 21V21.5H97.7778V21V20.5H94V21ZM101.556 21V21.5H105.333V21V20.5H101.556V21ZM109.111 21V21.5H111V21V20.5H109.111V21ZM43 20.5C42.7239 20.5 42.5 20.7239 42.5 21C42.5 21.2761 42.7239 21.5 43 21.5V21V20.5ZM111.354 21.3536C111.549 21.1583 111.549 20.8417 111.354 20.6464L108.172 17.4645C107.976 17.2692 107.66 17.2692 107.464 17.4645C107.269 17.6597 107.269 17.9763 107.464 18.1716L110.293 21L107.464 23.8284C107.269 24.0237 107.269 24.3403 107.464 24.5355C107.66 24.7308 107.976 24.7308 108.172 24.5355L111.354 21.3536ZM43 21V21.5H44.8889V21V20.5H43V21ZM48.6667 21V21.5H52.4444V21V20.5H48.6667V21ZM56.2222 21V21.5H60V21V20.5H56.2222V21ZM63.7778 21V21.5H67.5556V21V20.5H63.7778V21ZM71.3333 21V21.5H75.1111V21V20.5H71.3333V21ZM78.8889 21V21.5H82.6667V21V20.5H78.8889V21ZM86.4445 21V21.5H90.2222V21V20.5H86.4445V21ZM94 21V21.5H97.7778V21V20.5H94V21ZM101.556 21V21.5H105.333V21V20.5H101.556V21ZM109.111 21V21.5H111V21V20.5H109.111V21Z" fill="#FFF3EF"/>
<defs>
<filter id="filter0_ii_768_1121" x="0" y="-4" width="41" height="47" filterUnits="userSpaceOnUse" color-interpolation-filters="sRGB">
<feFlood flood-opacity="0" result="BackgroundImageFix"/>
<feBlend mode="normal" in="SourceGraphic" in2="BackgroundImageFix" result="shape"/>
<feColorMatrix in="SourceAlpha" type="matrix" values="0 0 0 0 0 0 0 0 0 0 0 0 0 0 0 0 0 0 127 0" result="hardAlpha"/>
<feMorphology radius="5" operator="dilate" in="SourceAlpha" result="effect1_innerShadow_768_1121"/>
<feOffset dx="1" dy="11"/>
<feGaussianBlur stdDeviation="4"/>
<feComposite in2="hardAlpha" operator="arithmetic" k2="-1" k3="1"/>
<feColorMatrix type="matrix" values="0 0 0 0 1 0 0 0 0 0.778433 0 0 0 0 0.881831 0 0 0 0.08 0"/>
<feBlend mode="normal" in2="shape" result="effect1_innerShadow_768_1121"/>
<feColorMatrix in="SourceAlpha" type="matrix" values="0 0 0 0 0 0 0 0 0 0 0 0 0 0 0 0 0 0 127 0" result="hardAlpha"/>
<feMorphology radius="1" operator="erode" in="SourceAlpha" result="effect2_innerShadow_768_1121"/>
<feOffset dx="1" dy="-4"/>
<feGaussianBlur stdDeviation="4"/>
<feComposite in2="hardAlpha" operator="arithmetic" k2="-1" k3="1"/>
<feColorMatrix type="matrix" values="0 0 0 0 1 0 0 0 0 0.780392 0 0 0 0 0.882353 0 0 0 0.14 0"/>
<feBlend mode="normal" in2="effect1_innerShadow_768_1121" result="effect2_innerShadow_768_1121"/>
</filter>
<filter id="filter1_ii_768_1121" x="114" y="-4" width="41" height="47" filterUnits="userSpaceOnUse" color-interpolation-filters="sRGB">
<feFlood flood-opacity="0" result="BackgroundImageFix"/>
<feBlend mode="normal" in="SourceGraphic" in2="BackgroundImageFix" result="shape"/>
<feColorMatrix in="SourceAlpha" type="matrix" values="0 0 0 0 0 0 0 0 0 0 0 0 0 0 0 0 0 0 127 0" result="hardAlpha"/>
<feMorphology radius="5" operator="dilate" in="SourceAlpha" result="effect1_innerShadow_768_1121"/>
<feOffset dx="1" dy="11"/>
<feGaussianBlur stdDeviation="4"/>
<feComposite in2="hardAlpha" operator="arithmetic" k2="-1" k3="1"/>
<feColorMatrix type="matrix" values="0 0 0 0 1 0 0 0 0 0.778433 0 0 0 0 0.881831 0 0 0 0.08 0"/>
<feBlend mode="normal" in2="shape" result="effect1_innerShadow_768_1121"/>
<feColorMatrix in="SourceAlpha" type="matrix" values="0 0 0 0 0 0 0 0 0 0 0 0 0 0 0 0 0 0 127 0" result="hardAlpha"/>
<feMorphology radius="1" operator="erode" in="SourceAlpha" result="effect2_innerShadow_768_1121"/>
<feOffset dx="1" dy="-4"/>
<feGaussianBlur stdDeviation="4"/>
<feComposite in2="hardAlpha" operator="arithmetic" k2="-1" k3="1"/>
<feColorMatrix type="matrix" values="0 0 0 0 1 0 0 0 0 0.780392 0 0 0 0 0.882353 0 0 0 0.14 0"/>
<feBlend mode="normal" in2="effect1_innerShadow_768_1121" result="effect2_innerShadow_768_1121"/>
</filter>
</defs>
</svg>
