<svg width="32" height="32" viewBox="0 0 32 32" fill="none" xmlns="http://www.w3.org/2000/svg" preserveAspectRatio="xMidYMid meet">
<path d="M22.4407 5.66675H9.56065C8.84732 5.66675 8.25398 5.66675 7.76732 5.70675C7.26065 5.74675 6.78598 5.83741 6.33665 6.06675C5.64658 6.41831 5.08554 6.97934 4.73398 7.66941C4.61398 7.90541 4.56598 8.19741 4.53932 8.37075C4.50326 8.62747 4.47658 8.88542 4.45932 9.14408C4.41665 9.71741 4.38865 10.4294 4.36998 11.1574C4.33398 12.6134 4.33398 14.1841 4.33398 14.9307V14.9334C4.33398 15.1986 4.43934 15.453 4.62688 15.6405C4.81441 15.8281 5.06877 15.9334 5.33398 15.9334C5.5992 15.9334 5.85355 15.8281 6.04109 15.6405C6.22863 15.453 6.33398 15.1986 6.33398 14.9334C6.33398 14.5601 6.33398 13.9894 6.33798 13.3334H25.6673V19.7334C25.6673 20.4961 25.6673 21.0094 25.634 21.4027C25.6033 21.7867 25.5473 21.9694 25.486 22.0894C25.3261 22.4035 25.0708 22.6589 24.7567 22.8187C24.6367 22.8801 24.454 22.9361 24.07 22.9667C23.6767 22.9987 23.1633 23.0001 22.4007 23.0001H16.0007C15.7354 23.0001 15.4811 23.1054 15.2935 23.293C15.106 23.4805 15.0007 23.7349 15.0007 24.0001C15.0007 24.2653 15.106 24.5197 15.2935 24.7072C15.4811 24.8947 15.7354 25.0001 16.0007 25.0001H22.4407C23.154 25.0001 23.7473 25.0001 24.234 24.9601C24.7407 24.9201 25.2153 24.8294 25.6646 24.6001C26.3545 24.2489 26.9155 23.6883 27.2673 22.9987C27.4967 22.5481 27.5873 22.0734 27.6273 21.5667C27.6673 21.0801 27.6673 20.4867 27.6673 19.7747V10.8934C27.6673 10.1801 27.6673 9.58675 27.6273 9.10008C27.5873 8.59341 27.4967 8.11875 27.2673 7.66941C26.9165 6.97975 26.3564 6.41876 25.6673 6.06675C25.2167 5.83741 24.742 5.74675 24.2353 5.70675C23.7487 5.66675 23.154 5.66675 22.4407 5.66675ZM25.6673 10.6667H6.38598C6.40198 10.1547 6.42598 9.68141 6.45265 9.29208C6.47398 9.02719 6.49576 8.8183 6.51798 8.66541C6.52954 8.59341 6.53754 8.54719 6.54198 8.52675C6.70316 8.23542 6.9479 7.99904 7.24465 7.84808C7.36465 7.78675 7.54732 7.73075 7.92998 7.70008C8.32465 7.66808 8.83665 7.66675 9.60065 7.66675H22.4007C23.1633 7.66675 23.6767 7.66675 24.07 7.70008C24.454 7.73075 24.6367 7.78675 24.7567 7.84808C25.0713 8.00808 25.326 8.26275 25.486 8.57741C25.5473 8.69741 25.6033 8.88008 25.634 9.26275C25.662 9.60941 25.666 10.0481 25.6673 10.6667Z" fill="#0073FF"/>
<path d="M12.4196 21.1693L11.4596 22.1027C12.0623 23.24 11.873 24.6693 10.8876 25.624L9.35696 27.1093C8.75907 27.6807 7.96394 27.9995 7.13696 27.9995C6.30998 27.9995 5.51484 27.6807 4.91696 27.1093C4.62775 26.833 4.39757 26.5008 4.2403 26.133C4.08304 25.7652 4.00195 25.3693 4.00195 24.9693C4.00195 24.5693 4.08304 24.1734 4.2403 23.8056C4.39757 23.4378 4.62775 23.1057 4.91696 22.8293L5.87696 21.8987C5.57592 21.3293 5.46876 20.6774 5.57175 20.0417C5.67473 19.4059 5.98224 18.8211 6.44763 18.376L7.97829 16.8907C8.57618 16.3193 9.37132 16.0005 10.1983 16.0005C11.0253 16.0005 11.8204 16.3193 12.4183 16.8907C12.7075 17.167 12.9377 17.4991 13.095 17.8669C13.2522 18.2348 13.3333 18.6306 13.3333 19.0307C13.3333 19.4307 13.2522 19.8265 13.095 20.1944C12.9377 20.5622 12.7075 20.8943 12.4183 21.1707M11.5503 20.3573C11.729 20.186 11.8713 19.9802 11.9684 19.7524C12.0656 19.5247 12.1157 19.2796 12.1157 19.032C12.1157 18.7844 12.0656 18.5393 11.9684 18.3115C11.8713 18.0838 11.729 17.878 11.5503 17.7067C11.1865 17.3575 10.7018 17.1625 10.1976 17.1625C9.69341 17.1625 9.20872 17.3575 8.84496 17.7067L7.31296 19.192C7.07065 19.425 6.8968 19.7199 6.8103 20.0448C6.7238 20.3697 6.72795 20.712 6.82229 21.0347C7.39718 20.635 8.08647 20.4331 8.78615 20.4596C9.48582 20.486 10.1579 20.7394 10.701 21.1813L11.5503 20.3573ZM9.83296 22C9.49563 21.7505 9.08716 21.6159 8.66763 21.6159C8.24809 21.6159 7.83962 21.7505 7.50229 22C7.83962 22.2494 8.24809 22.384 8.66763 22.384C9.08716 22.384 9.49563 22.2494 9.83296 22ZM5.78363 23.644C5.60488 23.8154 5.46264 24.0211 5.36547 24.2489C5.2683 24.4766 5.21821 24.7217 5.21821 24.9693C5.21821 25.2169 5.2683 25.462 5.36547 25.6898C5.46264 25.9175 5.60488 26.1233 5.78363 26.2947C6.14738 26.6438 6.63207 26.8388 7.13629 26.8388C7.64051 26.8388 8.1252 26.6438 8.48896 26.2947L10.021 24.8093C10.5343 24.312 10.6983 23.6013 10.5116 22.9667C9.93674 23.3663 9.24745 23.5682 8.54777 23.5417C7.8481 23.5153 7.17602 23.262 6.63296 22.82L5.78363 23.644ZM18.6676 17.3333C18.314 17.3333 17.9749 17.4738 17.7248 17.7238C17.4748 17.9739 17.3343 18.313 17.3343 18.6667C17.3343 19.0203 17.4748 19.3594 17.7248 19.6095C17.9749 19.8595 18.314 20 18.6676 20H22.6676C23.0212 20 23.3604 19.8595 23.6104 19.6095C23.8605 19.3594 24.001 19.0203 24.001 18.6667C24.001 18.313 23.8605 17.9739 23.6104 17.7238C23.3604 17.4738 23.0212 17.3333 22.6676 17.3333H18.6676Z" fill="#0073FF"/>
</svg>
