<svg width="32" height="32" viewBox="0 0 32 32" fill="none" xmlns="http://www.w3.org/2000/svg" preserveAspectRatio="xMidYMid meet">
<path d="M4 16C4 14.4241 4.31039 12.8637 4.91345 11.4078C5.5165 9.95189 6.40042 8.62902 7.51472 7.51472C8.62902 6.40042 9.95189 5.5165 11.4078 4.91345C12.8637 4.31039 14.4241 4 16 4C17.5759 4 19.1363 4.31039 20.5922 4.91345C22.0481 5.5165 23.371 6.40042 24.4853 7.51472C25.5996 8.62902 26.4835 9.95189 27.0866 11.4078C27.6896 12.8637 28 14.4241 28 16C28 19.1826 26.7357 22.2348 24.4853 24.4853C22.2348 26.7357 19.1826 28 16 28C12.8174 28 9.76515 26.7357 7.51472 24.4853C5.26428 22.2348 4 19.1826 4 16ZM16 2C12.287 2 8.72601 3.475 6.1005 6.1005C3.475 8.72601 2 12.287 2 16C2 19.713 3.475 23.274 6.1005 25.8995C8.72601 28.525 12.287 30 16 30C19.713 30 23.274 28.525 25.8995 25.8995C28.525 23.274 30 19.713 30 16C30 12.287 28.525 8.72601 25.8995 6.1005C23.274 3.475 19.713 2 16 2ZM19.728 8.288C19.5357 8.10273 19.279 7.99921 19.012 7.99921C18.745 7.99921 18.4883 8.10273 18.296 8.288C18.2022 8.37847 18.1277 8.48691 18.0767 8.60683C18.0258 8.72676 17.9996 8.85571 17.9996 8.986C17.9996 9.11629 18.0258 9.24524 18.0767 9.36517C18.1277 9.48509 18.2022 9.59353 18.296 9.684C19.145 10.5023 19.8204 11.4834 20.2816 12.5686C20.7429 13.6538 20.9806 14.8208 20.9806 16C20.9806 17.1792 20.7429 18.3462 20.2816 19.4314C19.8204 20.5166 19.145 21.4977 18.296 22.316C18.2022 22.4065 18.1277 22.5149 18.0767 22.6348C18.0258 22.7548 17.9996 22.8837 17.9996 23.014C17.9996 23.1443 18.0258 23.2732 18.0767 23.3932C18.1277 23.5131 18.2022 23.6215 18.296 23.712C18.4883 23.8973 18.745 24.0008 19.012 24.0008C19.279 24.0008 19.5357 23.8973 19.728 23.712C20.7648 22.7129 21.5895 21.515 22.1528 20.1899C22.716 18.8649 23.0064 17.4398 23.0064 16C23.0064 14.5602 22.716 13.1351 22.1528 11.8101C21.5895 10.485 20.7648 9.28709 19.728 8.288ZM15.688 10.296C15.5973 10.2019 15.4886 10.127 15.3683 10.0759C15.248 10.0247 15.1187 9.99838 14.988 9.99838C14.8573 9.99838 14.728 10.0247 14.6077 10.0759C14.4874 10.127 14.3787 10.2019 14.288 10.296C14.1023 10.4881 13.9984 10.7448 13.9984 11.012C13.9984 11.2792 14.1023 11.5359 14.288 11.728C15.3963 12.8732 16.0159 14.4044 16.0159 15.998C16.0159 17.5916 15.3963 19.1228 14.288 20.268C14.1023 20.4601 13.9984 20.7168 13.9984 20.984C13.9984 21.2512 14.1023 21.5079 14.288 21.7C14.3787 21.7941 14.4874 21.869 14.6077 21.9201C14.728 21.9713 14.8573 21.9976 14.988 21.9976C15.1187 21.9976 15.248 21.9713 15.3683 21.9201C15.4886 21.869 15.5973 21.7941 15.688 21.7C18.76 18.55 18.76 13.446 15.688 10.296ZM10.276 12.306C10.3594 12.2098 10.4624 12.1327 10.5782 12.0799C10.694 12.027 10.8197 11.9996 10.947 11.9996C11.0743 11.9996 11.2 12.027 11.3158 12.0799C11.4316 12.1327 11.5346 12.2098 11.618 12.306C13.468 14.346 13.468 17.654 11.618 19.694C11.5346 19.7898 11.4317 19.8667 11.3161 19.9193C11.2005 19.972 11.075 19.9992 10.948 19.9992C10.821 19.9992 10.6955 19.972 10.5799 19.9193C10.4643 19.8667 10.3614 19.7898 10.278 19.694C10.0975 19.4894 9.99783 19.2259 9.99783 18.953C9.99783 18.6801 10.0975 18.4166 10.278 18.212C10.8136 17.5996 11.1088 16.8136 11.1088 16C11.1088 15.1864 10.8136 14.4004 10.278 13.788C10.0975 13.5834 9.99783 13.3199 9.99783 13.047C9.99783 12.7741 10.0955 12.5106 10.276 12.306Z" fill="#009812"/>
</svg>
