<svg width="64" height="64" viewBox="0 0 64 64" fill="none" xmlns="http://www.w3.org/2000/svg">
<g opacity="0.6" filter="url(#filter0_ii_486_1057)">
<rect width="64" height="64" rx="32" fill="#201E1F" fill-opacity="0.31"/>
<path d="M32 44C33.5759 44 35.1363 43.6896 36.5922 43.0866C38.0481 42.4835 39.371 41.5996 40.4853 40.4853C41.5996 39.371 42.4835 38.0481 43.0866 36.5922C43.6896 35.1363 44 33.5759 44 32C44 30.4241 43.6896 28.8637 43.0866 27.4078C42.4835 25.9519 41.5996 24.629 40.4853 23.5147C39.371 22.4004 38.0481 21.5165 36.5922 20.9134C35.1363 20.3104 33.5759 20 32 20C28.8174 20 25.7652 21.2643 23.5147 23.5147C21.2643 25.7652 20 28.8174 20 32C20 35.1826 21.2643 38.2348 23.5147 40.4853C25.7652 42.7357 28.8174 44 32 44Z" fill="#0B53BF"/>
<path d="M34.16 23.2666V24.8119C35.7037 25.2795 37.0562 26.2311 38.0177 27.5261C38.9792 28.8211 39.4989 30.391 39.5 32.0039C39.4989 33.6169 38.9792 35.1868 38.0177 36.4818C37.0562 37.7768 35.7037 38.7283 34.16 39.1959V40.7426C36.1138 40.262 37.8498 39.1396 39.09 37.5552C40.3301 35.9708 41.0027 34.016 41 32.0039C41.0024 29.9921 40.3297 28.0377 39.0896 26.4535C37.8494 24.8694 36.1136 23.7472 34.16 23.2666ZM24.5 32.0039C24.5011 30.391 25.0208 28.8211 25.9823 27.5261C26.9439 26.2311 28.2963 25.2795 29.84 24.8119V23.2666C27.8864 23.7472 26.1506 24.8694 24.9104 26.4535C23.6703 28.0377 22.9976 29.9921 23 32.0039C22.9976 34.0158 23.6703 35.9702 24.9104 37.5544C26.1506 39.1385 27.8864 40.2607 29.84 40.7413V39.1959C28.2952 38.7302 26.9415 37.7792 25.9797 36.4837C25.0178 35.1883 24.499 33.6174 24.5 32.0039Z" fill="white"/>
<path d="M35.2253 33.6773C35.2253 30.6093 30.4173 31.8693 30.4173 30.1746C30.4173 29.5666 30.9053 29.1773 31.8347 29.1773C32.9453 29.1773 33.328 29.7173 33.448 30.444H34.9773C34.8413 29.0786 34.0573 28.2173 32.7507 27.96V26.7546H31.2507V27.9173C29.8173 28.1 28.9173 28.9333 28.9173 30.1746C28.9173 33.2573 33.732 32.1013 33.732 33.7666C33.732 34.396 33.1253 34.816 32.0973 34.816C30.7547 34.816 30.312 34.224 30.148 33.4066H28.6533C28.7507 34.9026 29.672 35.8373 31.2493 36.072V37.2533H32.7493V36.0866C34.2867 35.888 35.2253 34.9933 35.2253 33.6773Z" fill="white"/>
</g>
<defs>
<filter id="filter0_ii_486_1057" x="0" y="-4" width="65" height="71" filterUnits="userSpaceOnUse" color-interpolation-filters="sRGB">
<feFlood flood-opacity="0" result="BackgroundImageFix"/>
<feBlend mode="normal" in="SourceGraphic" in2="BackgroundImageFix" result="shape"/>
<feColorMatrix in="SourceAlpha" type="matrix" values="0 0 0 0 0 0 0 0 0 0 0 0 0 0 0 0 0 0 127 0" result="hardAlpha"/>
<feMorphology radius="5" operator="dilate" in="SourceAlpha" result="effect1_innerShadow_486_1057"/>
<feOffset dx="1" dy="11"/>
<feGaussianBlur stdDeviation="4"/>
<feComposite in2="hardAlpha" operator="arithmetic" k2="-1" k3="1"/>
<feColorMatrix type="matrix" values="0 0 0 0 1 0 0 0 0 0.778433 0 0 0 0 0.881831 0 0 0 0.08 0"/>
<feBlend mode="normal" in2="shape" result="effect1_innerShadow_486_1057"/>
<feColorMatrix in="SourceAlpha" type="matrix" values="0 0 0 0 0 0 0 0 0 0 0 0 0 0 0 0 0 0 127 0" result="hardAlpha"/>
<feMorphology radius="1" operator="erode" in="SourceAlpha" result="effect2_innerShadow_486_1057"/>
<feOffset dx="1" dy="-4"/>
<feGaussianBlur stdDeviation="4"/>
<feComposite in2="hardAlpha" operator="arithmetic" k2="-1" k3="1"/>
<feColorMatrix type="matrix" values="0 0 0 0 1 0 0 0 0 0.780392 0 0 0 0 0.882353 0 0 0 0.14 0"/>
<feBlend mode="normal" in2="effect1_innerShadow_486_1057" result="effect2_innerShadow_486_1057"/>
</filter>
</defs>
</svg>
