<svg width="32" height="32" viewBox="0 0 32 32" fill="none" xmlns="http://www.w3.org/2000/svg" preserveAspectRatio="xMidYMid meet">
<path d="M15.9987 22.6573C17.472 22.6573 18.6654 21.7626 18.6654 20.6599C18.6654 19.5559 17.472 18.6613 15.9987 18.6613C14.5254 18.6613 13.332 17.7666 13.332 16.6639C13.332 15.5586 14.5254 14.6653 15.9987 14.6653V13.3333M15.9987 22.6573C14.8387 22.6573 13.8494 22.1013 13.484 21.3253M15.9987 22.6573L16.0027 23.9999M15.9987 14.6666C17.1587 14.6666 18.148 15.2226 18.5134 15.9986" stroke="#FF7849" stroke-width="1.5" stroke-linecap="round"/>
<path d="M27.9993 14.6667C28.2054 14.5639 28.3921 14.4263 28.5513 14.26C29.3327 13.452 29.3327 12.1467 29.3327 9.536C29.3327 6.92533 29.3327 5.62133 28.5513 4.81067C27.77 4 26.514 4 23.9993 4H7.99935C5.48468 4 4.22868 4 3.44735 4.81067C2.66602 5.62133 2.66602 6.92667 2.66602 9.536C2.66602 12.1453 2.66602 13.4507 3.44735 14.26C3.60735 14.4271 3.79135 14.5627 3.99935 14.6667" stroke="#FF7849" stroke-width="1.5" stroke-linecap="round"/>
<path d="M15.9993 27.9999C21.154 27.9999 25.3327 23.8212 25.3327 18.6666C25.3327 13.5119 21.154 9.33325 15.9993 9.33325C10.8447 9.33325 6.66602 13.5119 6.66602 18.6666C6.66602 23.8212 10.8447 27.9999 15.9993 27.9999Z" stroke="#FF7849" stroke-width="1.5"/>
<path d="M6.66602 9.33325H25.3327" stroke="#FF7849" stroke-width="1.5" stroke-linecap="round" stroke-linejoin="round"/>
</svg>
